#!OML:ASF F:\VICON\USERDATA\INSTALL\rory3\rory3.ASF
:FULLY-SPECIFIED
:DEGREES
1
root 0.697624 17.6628 -27.9605 -0.231731 -0.00196338 0.0659599
lowerback 11.2763 -1.61724 -1.92235
upperback -0.323984 -2.16507 3.67116
thorax -6.4636 -0.935577 5.33556
lowerneck -13.2911 -1.41487 -2.89763
upperneck 21.0617 -0.853496 -2.04909
head 8.78774 -0.853984 -0.307415
rclavicle -2.36554e-014 1.35174e-014
rhumerus -41.251 -32.5689 -62.4821
rradius 18.0701
rwrist 14.6173
rhand -19.8034 21.7809
rfingers 7.12502
rthumb 6.52959 -8.0984
lclavicle -2.36554e-014 1.35174e-014
lhumerus -25.5268 5.3661 81.2333
lradius 33.4757
lwrist 7.33793
lhand -30.4682 20.2428
lfingers 7.12502
lthumb -3.76955 50.1893
rfemur -30.8402 2.73212 24.0364
rtibia 31.5255
rfoot -4.10895 -3.36358
rtoes 5.56775
lfemur 10.2545 -2.96726 -24.9054
ltibia 32.7078
lfoot -6.71526 -10.1626
ltoes -14.15
2
root 0.680172 17.6882 -27.7456 -0.317657 0.0534384 0.172718
lowerback 10.9586 -0.977577 -1.14476
upperback 0.767159 -1.28448 2.7803
thorax -5.25673 -0.576052 3.75948
lowerneck -17.5262 -2.14453 -1.37389
upperneck 22.1738 -2.14154 -1.88313
head 9.94468 -1.33212 -0.722802
rclavicle -5.66536e-015 -3.49861e-014
rhumerus -40.9548 -36.9945 -62.3561
rradius 18.0363
rwrist 15.6039
rhand -19.4396 22.0889
rfingers 7.12502
rthumb 6.88081 -7.7793
lclavicle -5.66536e-015 -3.49861e-014
lhumerus -22.8505 3.2335 81.2503
lradius 32.7769
lwrist 7.36351
lhand -31.1833 21.9742
lfingers 7.12502
lthumb -4.46015 51.9073
rfemur -30.3474 2.72165 24.0629
rtibia 32.2144
rfoot -4.63185 -3.315
rtoes 7.10069
lfemur 9.54478 -2.79119 -24.7092
ltibia 34.653
lfoot -3.59638 -11.948
ltoes -13.4994
3
root 0.657746 17.7141 -27.5424 -0.352162 -0.0907465 0.160891
lowerback 10.8617 -1.01414 -1.33327
upperback 0.58381 -1.34898 2.86966
thorax -5.38445 -0.598257 3.97224
lowerneck -16.7483 -2.10856 -1.52506
upperneck 21.9254 -2.10341 -1.7522
head 9.71458 -1.30965 -0.633232
rclavicle 7.55382e-015 2.70347e-014
rhumerus -41.3026 -36.7434 -61.9665
rradius 17.9501
rwrist 15.2414
rhand -19.3765 22.0327
rfingers 7.12502
rthumb 6.94168 -7.83353
lclavicle 7.55382e-015 2.70347e-014
lhumerus -23.7132 3.8266 81.2958
lradius 32.5702
lwrist 7.48917
lhand -31.1643 22.2208
lfingers 7.12502
lthumb -4.44175 52.1542
rfemur -29.8875 2.97337 24.2168
rtibia 32.7168
rfoot -4.79661 -4.03036
rtoes 8.63172
lfemur 8.60906 -2.53938 -24.3477
ltibia 36.6084
lfoot -0.364174 -12.7855
ltoes -15.3672
4
root 0.638549 17.7222 -27.3517 -0.553155 -0.143111 0.103132
lowerback 11.1136 -0.933041 -1.29327
upperback 0.6961 -1.23955 2.83113
thorax -5.41731 -0.546333 3.89742
lowerneck -17.3186 -2.17122 -1.41763
upperneck 22.1016 -2.23429 -1.63768
head 9.88303 -1.3492 -0.638382
rclavicle 1.76918e-014 1.90833e-014
rhumerus -40.9002 -36.4159 -62.6206
rradius 18.1958
rwrist 14.0219
rhand -20.0177 21.3562
rfingers 7.12502
rthumb 6.32274 -8.52941
lclavicle 1.76918e-014 1.90833e-014
lhumerus -23.7376 4.03954 81.3994
lradius 32.1402
lwrist 7.42322
lhand -30.8146 21.447
lfingers 7.12502
lthumb -4.10407 51.3872
rfemur -29.202 3.05732 24.4545
rtibia 33.0688
rfoot -4.675 -4.88131
rtoes 9.72865
lfemur 7.77908 -2.55659 -23.9913
ltibia 38.7068
lfoot 4.87038 -15.165
ltoes -10.4072
5
root 0.616176 17.7896 -27.1539 -0.752718 -0.126899 -0.00111576
lowerback 11.4942 -1.43884 -1.90139
upperback -0.182843 -1.94254 3.43191
thorax -6.46803 -0.832737 5.03642
lowerneck -14.0121 -1.62925 -2.47475
upperneck 21.3028 -1.33586 -1.5368
head 9.00219 -0.996944 -0.268068
rclavicle -5.2181e-015 3.97569e-014
rhumerus -41.5345 -33.0594 -62.5472
rradius 18.3634
rwrist 13.1121
rhand -19.6045 21.5745
rfingers 7.12502
rthumb 6.72161 -8.29878
lclavicle -5.2181e-015 3.97569e-014
lhumerus -26.5699 6.08086 81.3496
lradius 32.1143
lwrist 7.19857
lhand -30.715 22.3884
lfingers 7.12502
lthumb -4.00794 52.3304
rfemur -28.2085 3.24328 24.687
rtibia 33.1535
rfoot -4.81784 -5.00471
rtoes 12.1902
lfemur 6.21423 -2.15189 -23.5533
ltibia 41.1109
lfoot 8.48948 -17.5764
ltoes -11.3231
6
root 0.594293 17.828 -26.9593 -0.79219 -0.247356 -0.403822
lowerback 11.2529 -1.18806 -1.10375
upperback 0.24691 -1.53125 3.09682
thorax -5.94549 -0.677049 4.1338
lowerneck -15.2259 -1.89924 -1.89613
upperneck 21.3432 -1.90226 -1.16055
head 9.238 -1.17497 -0.316987
rclavicle 1.74434e-014 -1.27222e-014
rhumerus -41.5465 -35.0382 -62.3756
rradius 18.228
rwrist 14.3084
rhand -18.9781 22.5651
rfingers 7.12502
rthumb 7.32632 -7.28804
lclavicle 1.74434e-014 -1.27222e-014
lhumerus -25.6641 5.15267 81.3017
lradius 31.3975
lwrist 7.38399
lhand -30.7953 22.8364
lfingers 7.12502
lthumb -4.08542 52.777
rfemur -27.3731 3.7992 25.2
rtibia 33.1401
rfoot -5.06548 -4.55482
rtoes 14.6048
lfemur 4.60967 -1.90502 -22.8111
ltibia 43.6117
lfoot 11.8587 -18.1999
ltoes -0.170552
7
root 0.573987 17.8597 -26.77 -0.727853 -0.176769 -0.885115
lowerback 11.0752 -1.14153 -0.477976
upperback 0.420031 -1.39719 3.04178
thorax -5.68931 -0.634949 3.68744
lowerneck -15.8298 -2.02464 -1.71403
upperneck 21.3547 -2.17906 -0.86097
head 9.35522 -1.25545 -0.285919
rclavicle 7.70291e-015 -2.38542e-014
rhumerus -41.3369 -35.8984 -62.359
rradius 18.0327
rwrist 15.3197
rhand -19.4282 23.4221
rfingers 7.12502
rthumb 6.89183 -6.44571
lclavicle 7.70291e-015 -2.38542e-014
lhumerus -25.4819 4.66535 81.3904
lradius 30.9912
lwrist 7.74037
lhand -30.3265 21.5028
lfingers 7.12502
lthumb -3.63276 51.4516
rfemur -26.6073 4.11243 25.8563
rtibia 32.8089
rfoot -5.18985 -4.54599
rtoes 14.4163
lfemur 2.77705 -1.92388 -21.9845
ltibia 46.252
lfoot 13.9211 -20.8127
ltoes 1.3393
